<mxfile host="app.diagrams.net" agent="Mozilla/5.0 (Macintosh; Intel Mac OS X 10_15_7) AppleWebKit/537.36 (KHTML, like Gecko) Chrome/127.0.0.0 Safari/537.36" version="24.7.14">
  <diagram name="Page-1" id="qdixJjm0_-qvVHZSuLOR">
    <mxGraphModel dx="954" dy="615" grid="1" gridSize="10" guides="1" tooltips="1" connect="1" arrows="1" fold="1" page="1" pageScale="1" pageWidth="850" pageHeight="1100" math="0" shadow="0">
      <root>
        <mxCell id="0" />
        <mxCell id="1" parent="0" />
        <mxCell id="h7UPKtijCCh62gcW4wqp-2" style="edgeStyle=orthogonalEdgeStyle;rounded=0;orthogonalLoop=1;jettySize=auto;html=1;" edge="1" parent="1" source="h7UPKtijCCh62gcW4wqp-1" target="h7UPKtijCCh62gcW4wqp-3">
          <mxGeometry relative="1" as="geometry">
            <mxPoint x="410" y="120" as="targetPoint" />
          </mxGeometry>
        </mxCell>
        <mxCell id="h7UPKtijCCh62gcW4wqp-4" value="" style="edgeStyle=orthogonalEdgeStyle;rounded=0;orthogonalLoop=1;jettySize=auto;html=1;" edge="1" parent="1" source="h7UPKtijCCh62gcW4wqp-1" target="h7UPKtijCCh62gcW4wqp-3">
          <mxGeometry relative="1" as="geometry" />
        </mxCell>
        <mxCell id="h7UPKtijCCh62gcW4wqp-5" value="" style="edgeStyle=orthogonalEdgeStyle;rounded=0;orthogonalLoop=1;jettySize=auto;html=1;strokeColor=#FF3333;" edge="1" parent="1" source="h7UPKtijCCh62gcW4wqp-1" target="h7UPKtijCCh62gcW4wqp-3">
          <mxGeometry relative="1" as="geometry" />
        </mxCell>
        <mxCell id="h7UPKtijCCh62gcW4wqp-7" style="edgeStyle=orthogonalEdgeStyle;rounded=0;orthogonalLoop=1;jettySize=auto;html=1;entryX=0;entryY=0.5;entryDx=0;entryDy=0;strokeColor=#FF3333;" edge="1" parent="1" source="h7UPKtijCCh62gcW4wqp-1" target="h7UPKtijCCh62gcW4wqp-6">
          <mxGeometry relative="1" as="geometry" />
        </mxCell>
        <mxCell id="h7UPKtijCCh62gcW4wqp-1" value="Door" style="rounded=1;whiteSpace=wrap;html=1;" vertex="1" parent="1">
          <mxGeometry x="130" y="90" width="120" height="60" as="geometry" />
        </mxCell>
        <mxCell id="h7UPKtijCCh62gcW4wqp-3" value="SoundAlarm" style="rounded=1;whiteSpace=wrap;html=1;" vertex="1" parent="1">
          <mxGeometry x="350" y="40" width="120" height="60" as="geometry" />
        </mxCell>
        <mxCell id="h7UPKtijCCh62gcW4wqp-6" value="VisualAlarm" style="rounded=1;whiteSpace=wrap;html=1;" vertex="1" parent="1">
          <mxGeometry x="350" y="140" width="120" height="60" as="geometry" />
        </mxCell>
        <mxCell id="h7UPKtijCCh62gcW4wqp-16" style="edgeStyle=orthogonalEdgeStyle;rounded=0;orthogonalLoop=1;jettySize=auto;html=1;entryX=0;entryY=0.5;entryDx=0;entryDy=0;" edge="1" parent="1" source="h7UPKtijCCh62gcW4wqp-12" target="h7UPKtijCCh62gcW4wqp-15">
          <mxGeometry relative="1" as="geometry" />
        </mxCell>
        <mxCell id="h7UPKtijCCh62gcW4wqp-12" value="Door" style="rounded=1;whiteSpace=wrap;html=1;" vertex="1" parent="1">
          <mxGeometry x="110" y="310" width="120" height="60" as="geometry" />
        </mxCell>
        <mxCell id="h7UPKtijCCh62gcW4wqp-17" style="edgeStyle=orthogonalEdgeStyle;rounded=0;orthogonalLoop=1;jettySize=auto;html=1;entryX=0.5;entryY=1;entryDx=0;entryDy=0;" edge="1" parent="1" source="h7UPKtijCCh62gcW4wqp-13" target="h7UPKtijCCh62gcW4wqp-15">
          <mxGeometry relative="1" as="geometry" />
        </mxCell>
        <mxCell id="h7UPKtijCCh62gcW4wqp-13" value="SoundAlarm" style="rounded=1;whiteSpace=wrap;html=1;" vertex="1" parent="1">
          <mxGeometry x="280" y="420" width="120" height="60" as="geometry" />
        </mxCell>
        <mxCell id="h7UPKtijCCh62gcW4wqp-19" style="edgeStyle=orthogonalEdgeStyle;rounded=0;orthogonalLoop=1;jettySize=auto;html=1;entryX=0.5;entryY=1;entryDx=0;entryDy=0;" edge="1" parent="1" source="h7UPKtijCCh62gcW4wqp-14" target="h7UPKtijCCh62gcW4wqp-15">
          <mxGeometry relative="1" as="geometry" />
        </mxCell>
        <mxCell id="h7UPKtijCCh62gcW4wqp-14" value="VisualAlarm" style="rounded=1;whiteSpace=wrap;html=1;" vertex="1" parent="1">
          <mxGeometry x="450" y="420" width="120" height="60" as="geometry" />
        </mxCell>
        <mxCell id="h7UPKtijCCh62gcW4wqp-15" value="Alarm" style="rounded=1;whiteSpace=wrap;html=1;" vertex="1" parent="1">
          <mxGeometry x="360" y="310" width="120" height="60" as="geometry" />
        </mxCell>
        <mxCell id="h7UPKtijCCh62gcW4wqp-22" style="edgeStyle=orthogonalEdgeStyle;rounded=0;orthogonalLoop=1;jettySize=auto;html=1;" edge="1" parent="1" source="h7UPKtijCCh62gcW4wqp-20" target="h7UPKtijCCh62gcW4wqp-15">
          <mxGeometry relative="1" as="geometry" />
        </mxCell>
        <mxCell id="h7UPKtijCCh62gcW4wqp-20" value="AIAlarm" style="rounded=1;whiteSpace=wrap;html=1;" vertex="1" parent="1">
          <mxGeometry x="360" y="520" width="120" height="60" as="geometry" />
        </mxCell>
        <mxCell id="h7UPKtijCCh62gcW4wqp-25" value="" style="edgeStyle=orthogonalEdgeStyle;rounded=0;orthogonalLoop=1;jettySize=auto;html=1;" edge="1" parent="1" source="h7UPKtijCCh62gcW4wqp-23" target="h7UPKtijCCh62gcW4wqp-24">
          <mxGeometry relative="1" as="geometry" />
        </mxCell>
        <mxCell id="h7UPKtijCCh62gcW4wqp-23" value="CalculatorController" style="rounded=1;whiteSpace=wrap;html=1;" vertex="1" parent="1">
          <mxGeometry x="100" y="640" width="120" height="60" as="geometry" />
        </mxCell>
        <mxCell id="h7UPKtijCCh62gcW4wqp-27" value="" style="edgeStyle=orthogonalEdgeStyle;rounded=0;orthogonalLoop=1;jettySize=auto;html=1;" edge="1" parent="1" source="h7UPKtijCCh62gcW4wqp-24" target="h7UPKtijCCh62gcW4wqp-26">
          <mxGeometry relative="1" as="geometry" />
        </mxCell>
        <mxCell id="h7UPKtijCCh62gcW4wqp-24" value="CalculatorService" style="whiteSpace=wrap;html=1;rounded=1;" vertex="1" parent="1">
          <mxGeometry x="300" y="640" width="120" height="60" as="geometry" />
        </mxCell>
        <mxCell id="h7UPKtijCCh62gcW4wqp-26" value="CalculatorRepository" style="whiteSpace=wrap;html=1;rounded=1;" vertex="1" parent="1">
          <mxGeometry x="500" y="640" width="120" height="60" as="geometry" />
        </mxCell>
        <mxCell id="h7UPKtijCCh62gcW4wqp-38" style="edgeStyle=orthogonalEdgeStyle;rounded=0;orthogonalLoop=1;jettySize=auto;html=1;entryX=0;entryY=0.5;entryDx=0;entryDy=0;" edge="1" parent="1" source="h7UPKtijCCh62gcW4wqp-32" target="h7UPKtijCCh62gcW4wqp-36">
          <mxGeometry relative="1" as="geometry" />
        </mxCell>
        <mxCell id="h7UPKtijCCh62gcW4wqp-32" value="CalculatorController" style="rounded=1;whiteSpace=wrap;html=1;" vertex="1" parent="1">
          <mxGeometry x="100" y="800" width="120" height="60" as="geometry" />
        </mxCell>
        <mxCell id="h7UPKtijCCh62gcW4wqp-37" value="" style="edgeStyle=orthogonalEdgeStyle;rounded=0;orthogonalLoop=1;jettySize=auto;html=1;" edge="1" parent="1" source="h7UPKtijCCh62gcW4wqp-34" target="h7UPKtijCCh62gcW4wqp-36">
          <mxGeometry relative="1" as="geometry" />
        </mxCell>
        <mxCell id="h7UPKtijCCh62gcW4wqp-34" value="CalculatorServiceImpl" style="whiteSpace=wrap;html=1;rounded=1;" vertex="1" parent="1">
          <mxGeometry x="290" y="900" width="120" height="60" as="geometry" />
        </mxCell>
        <mxCell id="h7UPKtijCCh62gcW4wqp-35" value="CalculatorRepository" style="whiteSpace=wrap;html=1;rounded=1;" vertex="1" parent="1">
          <mxGeometry x="500" y="800" width="120" height="60" as="geometry" />
        </mxCell>
        <mxCell id="h7UPKtijCCh62gcW4wqp-39" style="edgeStyle=orthogonalEdgeStyle;rounded=0;orthogonalLoop=1;jettySize=auto;html=1;entryX=0;entryY=0.5;entryDx=0;entryDy=0;" edge="1" parent="1" source="h7UPKtijCCh62gcW4wqp-36" target="h7UPKtijCCh62gcW4wqp-35">
          <mxGeometry relative="1" as="geometry" />
        </mxCell>
        <mxCell id="h7UPKtijCCh62gcW4wqp-36" value="CalculatorService" style="whiteSpace=wrap;html=1;rounded=1;" vertex="1" parent="1">
          <mxGeometry x="290" y="800" width="120" height="60" as="geometry" />
        </mxCell>
        <mxCell id="h7UPKtijCCh62gcW4wqp-42" value="" style="edgeStyle=orthogonalEdgeStyle;rounded=0;orthogonalLoop=1;jettySize=auto;html=1;" edge="1" parent="1" source="h7UPKtijCCh62gcW4wqp-40" target="h7UPKtijCCh62gcW4wqp-41">
          <mxGeometry relative="1" as="geometry" />
        </mxCell>
        <mxCell id="h7UPKtijCCh62gcW4wqp-40" value="Person" style="rounded=1;whiteSpace=wrap;html=1;" vertex="1" parent="1">
          <mxGeometry x="110" y="1010" width="120" height="60" as="geometry" />
        </mxCell>
        <mxCell id="h7UPKtijCCh62gcW4wqp-41" value="Brain" style="whiteSpace=wrap;html=1;rounded=1;" vertex="1" parent="1">
          <mxGeometry x="310" y="1010" width="120" height="60" as="geometry" />
        </mxCell>
      </root>
    </mxGraphModel>
  </diagram>
</mxfile>
